<svg width="14" height="12" viewBox="0 0 14 12" fill="none" xmlns="http://www.w3.org/2000/svg">
    <path fill-rule="evenodd" clip-rule="evenodd" d="M0 4.19333C0 1.46474 2.05892 0 3.66667 0C5.19009 0 6.13969 0.820886 6.66607 1.57757C6.66628 1.57786 6.66648 1.57811 6.66665 1.57833C6.66666 1.57833 6.66666 1.57833 6.66667 1.57833C6.66667 1.57833 6.66668 1.57833 6.66668 1.57833C6.66686 1.57811 6.66706 1.57785 6.66727 1.57756C7.19778 0.815065 8.19549 0 9.66667 0C11.2216 0 13.3333 1.45865 13.3333 4.19333C13.3333 5.26615 12.8791 6.24587 12.2696 7.08132C11.6586 7.91893 10.8584 8.65786 10.0822 9.26447C9.3027 9.87355 8.52645 10.3654 7.94598 10.7043C7.65505 10.8742 7.41138 11.0069 7.23853 11.0977C7.15213 11.1432 7.08296 11.1784 7.03394 11.2029C7.00959 11.215 6.98933 11.2249 6.97386 11.2324C6.969 11.2347 6.96374 11.2372 6.95845 11.2397C6.95573 11.241 6.95299 11.2423 6.9503 11.2435C6.94696 11.245 6.93973 11.2483 6.93108 11.2521C6.92761 11.2535 6.91742 11.2579 6.90433 11.2629C6.89693 11.2657 6.8773 11.2725 6.86492 11.2765C6.84006 11.2837 6.7413 11.3025 6.66667 11.3067C6.56317 11.3067 6.46109 11.2826 6.36852 11.2363C6.36884 11.2364 6.26651 11.1866 6.09352 11.0951C5.92128 11.0041 5.67793 10.8714 5.38711 10.7014C4.80695 10.3623 4.03078 9.87074 3.25136 9.26211C2.47511 8.65596 1.67488 7.91767 1.06382 7.08056C0.454312 6.24556 0 5.26621 0 4.19333ZM3.66667 1.33333C2.78108 1.33333 1.33333 2.21526 1.33333 4.19333C1.33333 4.88379 1.62736 5.5911 2.14076 6.29444C2.65262 6.99566 3.34989 7.64737 4.07197 8.21122C4.79088 8.7726 5.51389 9.23107 6.05997 9.55028C6.3058 9.69398 6.51433 9.80861 6.66859 9.89086C6.82208 9.80933 7.02933 9.6956 7.2736 9.55295C7.81939 9.23423 8.5423 8.77561 9.26118 8.21386C9.98322 7.64964 10.6805 6.99732 11.1924 6.29555C11.7059 5.59163 12 4.88385 12 4.19333C12 2.22135 10.5118 1.33333 9.66667 1.33333C8.73917 1.33333 8.11069 1.83679 7.76084 2.34037L7.75904 2.34295C7.22691 3.10124 6.10643 3.10124 5.5743 2.34295L5.57249 2.34038L5.5725 2.34037C5.21859 1.83096 4.6352 1.33333 3.66667 1.33333Z" fill="#707070"/>
</svg>
