<svg width="14" height="12" viewBox="0 0 14 12" fill="none" xmlns="http://www.w3.org/2000/svg">
    <path fill-rule="evenodd" clip-rule="evenodd" d="M3.89 0C2.1601 0 0 1.57021 0 4.41667C0 5.5536 0.48116 6.57852 1.10677 7.43557C1.73444 8.29545 2.55192 9.04824 3.33724 9.66147C4.1268 10.278 4.91187 10.7751 5.49774 11.1175C5.79165 11.2893 6.03783 11.4236 6.2125 11.5159C6.38817 11.6088 6.49296 11.6599 6.49198 11.6594C6.61556 11.7212 6.75183 11.7533 6.89 11.7533C6.98962 11.7477 7.12146 11.7227 7.15462 11.7131C7.17112 11.7078 7.1973 11.6986 7.20714 11.6949C7.22453 11.6883 7.23803 11.6825 7.24253 11.6806C7.2538 11.6758 7.26305 11.6715 7.26699 11.6697C7.27654 11.6653 7.28607 11.6608 7.29395 11.657C7.31067 11.649 7.33195 11.6385 7.357 11.626C7.4075 11.6008 7.47808 11.5649 7.56579 11.5187C7.74127 11.4265 7.98786 11.2923 8.28194 11.1205C8.86821 10.7782 9.6534 10.2808 10.443 9.66378C11.2284 9.05007 12.0458 8.29664 12.6734 7.43627C13.2989 6.57879 13.78 5.55352 13.78 4.41667C13.78 1.55423 11.5638 0 9.89 0C8.484 0 7.48516 0.702467 6.89064 1.43044C6.30736 0.707517 5.34345 0 3.89 0Z" fill="#FFBBC3"/>
</svg>
