<svg width="40" height="40" viewBox="0 0 40 40" fill="none" xmlns="http://www.w3.org/2000/svg">
    <path d="M21.6666 12.7833H8.33331C5.57189 12.7833 3.33331 15.0219 3.33331 17.7833V31.1167C3.33331 33.8781 5.57189 36.1167 8.33331 36.1167H21.6666C24.4281 36.1167 26.6666 33.8781 26.6666 31.1167V17.7833C26.6666 15.0219 24.4281 12.7833 21.6666 12.7833Z" fill="#E2E2E2"/>
    <path d="M23.0333 30.2833L20.25 25.4667C19.75 24.6 18.5 24.6 18 25.4667L16.3666 28.2833L13.3666 23.0833C12.8666 22.2167 11.6166 22.2167 11.1166 23.0833L6.96664 30.2833C6.46664 31.15 7.0833 32.2333 8.0833 32.2333H21.9C22.9 32.2333 23.5166 31.15 23.0166 30.2833H23.0333Z" fill="white"/>
    <path d="M20.8333 20.5666C21.9103 20.5666 22.7833 19.6936 22.7833 18.6166C22.7833 17.5397 21.9103 16.6666 20.8333 16.6666C19.7563 16.6666 18.8833 17.5397 18.8833 18.6166C18.8833 19.6936 19.7563 20.5666 20.8333 20.5666Z" fill="white"/>
    <path fill-rule="evenodd" clip-rule="evenodd" d="M31.8833 4.58575C31.8846 3.8954 31.3261 3.33469 30.6357 3.33338C29.9453 3.33206 29.3846 3.89064 29.3833 4.58099L29.3774 7.70024H26.25C25.5596 7.70024 25 8.25988 25 8.95024C25 9.64059 25.5596 10.2002 26.25 10.2002H29.3726L29.3667 13.331C29.3653 14.0213 29.9239 14.5821 30.6143 14.5834C31.3046 14.5847 31.8653 14.0261 31.8667 13.3358L31.8726 10.2002H35C35.6904 10.2002 36.25 9.64059 36.25 8.95024C36.25 8.25988 35.6904 7.70024 35 7.70024H31.8774L31.8833 4.58575Z" fill="#E2E2E2"/>
</svg>
