<svg width="128" height="18" viewBox="0 0 128 18" fill="none" xmlns="http://www.w3.org/2000/svg">
    <path d="M122 17.6426C120.924 17.6894 119.847 17.5958 118.77 17.5489C118.489 17.5489 117.857 17.5958 117.67 17.2914C117.599 17.151 117.599 16.9871 117.576 16.8466C117.529 16.1209 117.529 15.3952 117.506 14.6695C117.482 14.2481 117.459 13.5692 117.997 13.3819C118.231 13.3585 118.466 13.3819 118.7 13.4053C119.449 13.4756 120.9 13.4522 121.275 12.8201C121.509 12.4221 120.994 11.7666 120.338 11.1111C118.372 9.14466 116.874 7.99756 117.155 5.07128C117.459 1.0213 121.532 0.459456 125.161 0.389227C126.191 0.365815 127.174 0.459456 127.408 0.76379C127.596 0.974482 127.572 1.79384 127.572 2.07476C127.572 2.33228 127.549 3.80712 127.549 4.06464C127.549 4.76694 126.963 4.81377 126.425 4.81377C122.773 4.81377 121.86 6.45248 124.81 8.91056C126.214 10.0811 127.806 11.5559 127.853 13.9672C127.876 14.6695 127.689 15.3952 127.338 15.9805C126.285 17.5489 123.897 17.5255 122 17.6426Z" fill="#00AF50"/>
    <path d="M109.911 17.6426C108.834 17.6894 107.757 17.5958 106.68 17.5489C106.4 17.5489 105.767 17.5958 105.58 17.2914C105.51 17.151 105.51 16.9871 105.487 16.8466C105.44 16.1209 105.44 15.3952 105.416 14.6695C105.393 14.2481 105.37 13.5692 105.908 13.3819C106.142 13.3585 106.376 13.3819 106.61 13.4053C107.359 13.4756 108.811 13.4522 109.185 12.8201C109.419 12.4221 108.904 11.7666 108.249 11.1111C106.283 9.14466 104.784 7.99756 105.065 5.07128C105.37 1.0213 109.443 0.459456 113.072 0.389227C114.102 0.365815 115.085 0.459456 115.319 0.76379C115.506 0.974482 115.483 1.79384 115.483 2.07476C115.483 2.33228 115.459 3.80712 115.459 4.06464C115.459 4.76694 114.874 4.81377 114.336 4.81377C110.684 4.81377 109.771 6.45248 112.72 8.91056C114.125 10.0811 115.717 11.5559 115.764 13.9672C115.787 14.6695 115.6 15.3952 115.249 15.9805C114.195 17.5489 111.807 17.5255 109.911 17.6426Z" fill="#00AF50"/>
    <path d="M93.8206 17.3383C93.0247 17.3383 91.9712 17.7596 91.9712 16.5657C92.0648 15.5357 92.0882 14.5056 92.1117 13.4756C92.2287 10.2684 92.2521 7.03774 92.4628 3.83053C92.4862 3.45597 92.4862 1.37245 92.5565 0.997889C92.6267 0.693557 93.0247 0.529685 93.329 0.459454C93.7036 0.412634 95.6934 0.482865 96.068 0.482865C98.0345 0.529685 100.001 0.506275 101.967 0.506275C102.693 0.506275 103.606 0.646736 103.442 1.65338C103.419 1.95771 103.395 3.87735 103.395 4.18169C103.395 4.60307 103.583 6.00768 102.88 6.00768C101.523 6.0311 100.188 5.98427 98.8304 6.0311C98.4792 6.0311 98.1047 6.07792 97.7535 6.10133C97.7535 6.54612 97.7535 6.99092 97.7301 7.45912C98.8772 7.45912 100.024 7.48253 101.171 7.50594C101.593 7.50594 101.686 7.90392 101.686 8.25507C101.686 9.14466 101.71 10.0342 101.64 10.9004C101.64 11.1579 101.288 11.4857 101.008 11.4857C99.9073 11.4155 98.7836 11.392 97.6599 11.4389C97.6365 11.8368 97.6365 12.2348 97.6365 12.6094C98.5261 12.6094 99.4157 12.5391 100.305 12.5391C100.703 12.5391 102.646 12.5626 103.044 12.6328C103.512 12.7264 103.466 13.3585 103.419 13.7331C103.372 14.7163 103.372 15.6995 103.372 16.6828C103.372 17.4787 102.623 17.4085 101.967 17.4085C100.984 17.4085 94.8038 17.3617 93.8206 17.3383Z" fill="#00AF50"/>
    <path d="M79.4963 17.4553C78.4896 17.5957 77.4596 17.5021 76.4529 17.4553C76.2422 17.4553 75.142 17.4318 74.9313 17.385C74.6972 17.3382 74.5801 17.0807 74.6035 16.8466C74.6972 16.2847 74.7206 13.2648 74.744 12.703C74.8376 8.95733 74.861 5.21169 74.7908 1.46605C74.7908 1.37241 74.7908 0.880794 74.7908 0.787153C74.8376 0.553051 75.0249 0.342358 75.259 0.389179C75.4931 0.342358 76.6168 0.482821 76.8743 0.482821C77.4596 0.506231 80.9711 0.108256 81.252 0.389179C81.3223 0.459409 81.4861 0.810564 81.533 0.880794C82.6801 3.12818 83.7803 5.39897 84.7402 7.71659C84.7168 5.51603 84.7168 3.31546 84.6699 1.1149C84.6699 0.833974 84.9274 0.365768 85.2786 0.365768C86.6598 0.389179 88.1347 0.225307 89.6329 0.506231C89.9841 0.506231 90.1479 1.09149 90.0075 1.39582C89.867 1.67674 89.867 2.87067 89.867 3.175C89.8202 5.07123 89.8202 6.96746 89.7734 8.84028C89.75 9.82351 89.6095 15.7463 89.5393 16.7295C89.5393 16.9871 89.352 17.2446 89.0945 17.1743C88.837 17.1275 87.526 17.2212 87.2919 17.2212C85.9575 17.1743 84.6231 17.2212 83.3121 17.2446C83.1717 17.2446 83.078 17.1977 82.9844 17.0807C82.7269 16.7061 81.9309 14.6226 81.7437 14.1778C81.2052 12.82 80.62 11.4622 80.0347 10.1044C79.9645 12.3518 79.9177 14.5992 79.9177 16.8466C79.9177 17.1041 79.7304 17.4318 79.4963 17.4553Z" fill="#00AF50"/>
    <path d="M66.6466 17.3938C65.874 17.4172 65.1015 17.3938 64.329 17.3938C63.9076 17.3704 61.2856 17.4406 61.2856 16.6681C61.2856 16.6213 61.309 16.4106 61.309 16.3638C61.4027 15.006 61.3559 13.6248 61.4729 12.2436C61.3324 11.9158 61.2154 11.5647 61.0983 11.2135C61.0983 11.1901 61.0281 11.0496 61.0047 11.0262C60.8876 10.6048 59.9278 8.42769 59.764 8.00631C58.8744 5.94621 58.1018 3.81587 57.142 1.77918C56.9781 1.42803 56.8611 0.725719 57.2825 0.468207C57.5868 0.280925 58.1486 0.280925 58.5934 0.280925C59.4362 0.234105 60.3024 0.210693 61.1452 0.210693C61.3793 0.210693 62.3625 0.210693 62.5732 0.280925C62.9477 0.421386 62.8073 0.795951 62.9477 1.07687C63.3223 1.826 63.6032 2.62195 63.8842 3.39449C64.2353 4.35431 64.5631 5.31413 64.8908 6.29736C65.1015 5.59505 66.2018 1.98987 66.2954 1.26416C66.3891 0.561848 66.6466 0.210693 67.3957 0.327746C68.6364 0.351156 69.8772 0.257515 71.1179 0.304335C71.1179 0.304335 73.3887 0.397976 73.061 1.21734C72.8035 1.826 71.1413 5.29072 70.8604 5.87598C69.924 7.84244 68.8471 9.8089 67.8171 12.1967C67.8405 13.5545 67.9107 14.4441 67.9575 15.8253C67.9575 15.9424 68.0044 16.7383 68.0044 16.8554C68.0044 17.4172 67.2084 17.3704 66.6466 17.3938Z" fill="#00AF50"/>
    <path d="M49.8614 17.1129C49.7444 17.2534 49.5571 17.347 49.3932 17.347C47.8716 17.3002 46.3265 17.23 44.7346 17.23C44.3834 17.23 44.1259 16.9257 44.243 16.5979C44.2664 16.5745 44.2664 16.5511 44.2664 16.5277C44.4068 14.3739 44.4303 12.1968 44.5005 10.0196C44.5707 7.49133 44.4771 4.40117 44.5941 1.87287C44.5941 1.31102 44.8048 0.632123 45.4369 0.210738C45.7412 0.0468671 47.0054 0.0702771 47.3799 0.0702771C48.6909 0.0468671 50.0253 0.0468671 51.3363 0.163918C52.3429 0.25756 53.4198 0.421431 54.2626 0.983278C54.918 1.42807 55.4097 2.13038 55.714 2.8561C56.2524 4.05002 56.4397 5.43123 56.4163 6.76561C56.3929 7.74884 56.2524 8.75548 55.8545 9.66848C55.6204 10.2303 55.2458 10.7454 54.7776 11.1433C54.2157 11.5881 53.5368 11.869 52.8579 12.0797C51.9684 12.3607 51.0319 12.4309 50.0955 12.4777C50.1189 13.8823 50.1424 15.2167 50.0253 16.6213C50.0019 16.8086 49.9785 16.9959 49.8614 17.1129ZM50.2594 4.21389C50.2594 4.72892 50.3062 7.74884 50.3062 8.26387C50.7276 8.24046 51.1958 8.17023 51.5704 7.95953C51.8045 7.81907 51.9918 7.60838 52.1088 7.37428C52.3663 6.76561 52.1322 5.38441 51.7577 4.84597C51.4533 4.37776 50.7978 4.28412 50.2594 4.21389Z" fill="#00AF50"/>
    <path d="M36.2355 17.1129C36.1184 17.2534 35.9311 17.347 35.7672 17.347C34.2456 17.3002 32.7005 17.23 31.1086 17.23C30.7575 17.23 30.4999 16.9257 30.617 16.5979C30.6404 16.5745 30.6404 16.5511 30.6404 16.5277C30.7809 14.3739 30.8043 12.1968 30.8745 10.0196C30.9447 7.49133 30.8511 4.40117 30.9681 1.87287C30.9681 1.31102 31.1788 0.632123 31.8109 0.210738C32.1152 0.0468671 33.3794 0.0702771 33.754 0.0702771C35.0649 0.0468671 36.3993 0.0468671 37.7103 0.163918C38.7169 0.25756 39.7938 0.421431 40.6366 0.983278C41.2921 1.42807 41.7837 2.13038 42.088 2.8561C42.6265 4.05002 42.8137 5.43123 42.7903 6.76561C42.7669 7.74884 42.6265 8.75548 42.2285 9.66848C41.9944 10.2303 41.6198 10.7454 41.1516 11.1433C40.5898 11.5881 39.9109 11.869 39.232 12.0797C38.3424 12.3607 37.406 12.4309 36.4696 12.4777C36.493 13.8823 36.5164 15.2167 36.3993 16.6213C36.3759 16.8086 36.3525 16.9959 36.2355 17.1129ZM36.6334 4.21389C36.6334 4.72892 36.6802 7.74884 36.6802 8.26387C37.1016 8.24046 37.5698 8.17023 37.9444 7.95953C38.1785 7.81907 38.3658 7.60838 38.4828 7.37428C38.7404 6.76561 38.5063 5.38441 38.1317 4.84597C37.8274 4.37776 37.1719 4.28412 36.6334 4.21389Z" fill="#00AF50"/>
    <path d="M21.8392 17.1831C21.0433 17.1831 20.2473 17.2065 19.4748 17.0427C16.291 16.434 14.5352 13.5311 14.1607 10.3942C13.9266 8.42769 14.0436 6.43782 14.067 4.44795C14.0904 3.60518 14.067 2.76241 14.0904 1.94305C14.1373 1.45144 14.0904 0.117053 14.8864 0.117053C16.2442 0.117053 17.6254 -0.0468199 18.913 0.117053C19.4748 0.187282 19.9664 0.397975 19.9664 0.913001C19.9664 1.63872 19.8025 6.03985 19.8025 6.76556C19.7791 8.12336 19.8025 10.8858 21.7924 11.1199C23.7355 11.2369 24.0632 8.217 23.993 6.57828C23.9228 4.65864 23.8759 2.83264 23.7121 0.936411C23.6886 0.561847 23.7589 0.234104 24.2505 0.163872H24.2739C24.5782 0.140463 24.8826 0.140463 25.1869 0.140463C25.5849 0.140463 28.0195 0.0234114 28.4409 0C28.9091 0 28.9325 0.515026 28.9325 0.866179C28.9794 3.39449 29.1432 5.9228 29.0964 8.4511C29.0496 11.8456 28.5814 14.9592 25.1167 16.5745C24.0866 17.0427 22.9395 17.1597 21.8392 17.1831Z" fill="#00AF50"/>
    <path d="M5.64707 17.1129C5.53002 17.2534 5.34274 17.347 5.17887 17.347C3.6572 17.3002 2.11213 17.23 0.520228 17.23C0.169074 17.23 -0.0884388 16.9257 0.0286125 16.5979C0.0520228 16.5745 0.0520228 16.5511 0.0520228 16.5277C0.192484 14.3739 0.215895 12.1968 0.286125 10.0196C0.356356 7.49133 0.262715 4.40117 0.379766 1.87287C0.379766 1.31102 0.590459 0.632123 1.22254 0.210738C1.52687 0.0468671 2.79102 0.0702771 3.16559 0.0702771C4.47656 0.0468671 5.81095 0.0468671 7.12192 0.163918C8.12856 0.25756 9.20543 0.421431 10.0482 0.983278C10.7037 1.42807 11.1953 2.13038 11.4996 2.8561C12.0381 4.05002 12.2254 5.43123 12.2019 6.76561C12.1785 7.74884 12.0381 8.75548 11.6401 9.66848C11.406 10.2303 11.0314 10.7454 10.5632 11.1433C10.0014 11.5881 9.32248 11.869 8.64359 12.0797C7.754 12.3607 6.81759 12.4309 5.88118 12.4777C5.90459 13.8823 5.928 15.2167 5.81095 16.6213C5.78754 16.8086 5.76413 16.9959 5.64707 17.1129ZM6.04505 4.21389C6.04505 4.72892 6.09187 7.74884 6.09187 8.26387C6.51325 8.24046 6.98146 8.17023 7.35602 7.95953C7.59013 7.81907 7.77741 7.60838 7.89446 7.37428C8.15197 6.76561 7.91787 5.38441 7.54331 4.84597C7.23897 4.37776 6.58348 4.28412 6.04505 4.21389Z" fill="#00AF50"/>
</svg>
