<svg width="48" height="48" viewBox="0 0 48 48" fill="none" xmlns="http://www.w3.org/2000/svg">
    <g clip-path="url(#clip0_5832_4686)">
        <path d="M24 0.5C36.9791 0.5 47.5 11.0209 47.5 24C47.5 36.9791 36.9791 47.5 24 47.5C11.0209 47.5 0.5 36.9791 0.5 24C0.5 11.0209 11.0209 0.5 24 0.5Z" fill="#F7F7F7" stroke="#F7F7F7"/>
        <path fill-rule="evenodd" clip-rule="evenodd" d="M24.0002 24C27.2218 24 29.8335 21.3883 29.8335 18.1667C29.8335 14.945 27.2218 12.3333 24.0002 12.3333C20.7785 12.3333 18.1668 14.945 18.1668 18.1667C18.1668 21.3883 20.7785 24 24.0002 24ZM16.8987 26.7228C21.5795 25.6827 26.4301 25.6824 31.1001 26.7225C33.7741 27.3082 35.6668 29.6873 35.6668 32.4117V33.3334C35.6668 34.6194 34.6195 35.6667 33.3335 35.6667H14.6668C13.3808 35.6667 12.3335 34.6194 12.3335 33.3334V32.4117C12.3335 29.6818 14.231 27.3205 16.8968 26.7233L16.8987 26.7228Z" fill="#E2E2E2"/>
    </g>
    <defs>
        <clipPath id="clip0_5832_4686">
            <rect width="48" height="48" fill="white"/>
        </clipPath>
    </defs>
</svg>
