<!--<?xml version="1.0" encoding="utf-8"?>&lt;!&ndash; Uploaded to: SVG Repo, www.svgrepo.com, Generator: SVG Repo Mixer Tools &ndash;&gt;-->
<!--<svg fill="none" width="800px" height="800px" viewBox="0 0 56 56" xmlns="http://www.w3.org/2000/svg">-->
<!--    <path d="M 44.5235 48.6602 L 46.1407 14.3945 L 48.4844 14.3945 C 49.4454 14.3945 50.2187 13.5976 50.2187 12.6367 C 50.2187 11.6758 49.4454 10.8555 48.4844 10.8555 L 38.2422 10.8555 L 38.2422 7.3398 C 38.2422 3.9883 35.9688 1.8086 32.3595 1.8086 L 23.5938 1.8086 C 19.9844 1.8086 17.7344 3.9883 17.7344 7.3398 L 17.7344 10.8555 L 7.5391 10.8555 C 6.6016 10.8555 5.7813 11.6758 5.7813 12.6367 C 5.7813 13.5976 6.6016 14.3945 7.5391 14.3945 L 9.8829 14.3945 L 11.5000 48.6836 C 11.6641 52.0586 13.8907 54.1914 17.2657 54.1914 L 38.7579 54.1914 C 42.1095 54.1914 44.3595 52.0351 44.5235 48.6602 Z M 21.4844 7.5742 C 21.4844 6.2383 22.4688 5.3008 23.8751 5.3008 L 32.1016 5.3008 C 33.5313 5.3008 34.5157 6.2383 34.5157 7.5742 L 34.5157 10.8555 L 21.4844 10.8555 Z M 17.6173 50.6758 C 16.2579 50.6758 15.2500 49.6445 15.1797 48.2852 L 13.5391 14.3945 L 42.3907 14.3945 L 40.8438 48.2852 C 40.7735 49.6680 39.7891 50.6758 38.4063 50.6758 Z M 34.9610 46.5508 C 35.7344 46.5508 36.3204 45.9180 36.3438 45.0273 L 37.0469 20.2773 C 37.0704 19.3867 36.4610 18.7305 35.6641 18.7305 C 34.9376 18.7305 34.3282 19.4102 34.3048 20.2539 L 33.6016 45.0273 C 33.5782 45.8711 34.1641 46.5508 34.9610 46.5508 Z M 21.0626 46.5508 C 21.8595 46.5508 22.4454 45.8711 22.4219 45.0273 L 21.7188 20.2539 C 21.6954 19.4102 21.0626 18.7305 20.3360 18.7305 C 19.5391 18.7305 18.9532 19.3867 18.9766 20.2773 L 19.7032 45.0273 C 19.7266 45.9180 20.2891 46.5508 21.0626 46.5508 Z M 29.4298 45.0273 L 29.4298 20.2539 C 29.4298 19.4102 28.7969 18.7305 28.0235 18.7305 C 27.2500 18.7305 26.5938 19.4102 26.5938 20.2539 L 26.5938 45.0273 C 26.5938 45.8711 27.2500 46.5508 28.0235 46.5508 C 28.7735 46.5508 29.4298 45.8711 29.4298 45.0273 Z" fill="#CB3D0B"/>-->
<!--</svg>-->
<svg width="24" height="24" viewBox="0 0 24 24" fill="none" xmlns="http://www.w3.org/2000/svg">
    <path d="M19.92 6.84009H5C4.45 6.84009 4 6.39009 4 5.84009C4 5.29009 4.45 4.84009 5 4.84009H19.92C20.47 4.84009 20.92 5.29009 20.92 5.84009C20.92 6.39009 20.47 6.84009 19.92 6.84009Z" fill="#333333"/>
    <path d="M17.66 6.78017V19.8402H7.27002V6.78017H17.66ZM19.66 5.42017H5.27002V19.9102C5.27002 20.9702 6.17002 21.8302 7.27002 21.8302H17.66C18.76 21.8302 19.66 20.9702 19.66 19.9102V5.42017Z" fill="#333333"/>
    <path d="M8.19995 5.13L8.96995 3.59C9.14995 3.23 9.51995 3 9.91995 3H15C15.4 3 15.77 3.23 15.95 3.59L16.72 5.13H8.19995Z" fill="#333333"/>
    <path fill-rule="evenodd" clip-rule="evenodd" d="M10.33 8.57007C10.8822 8.57007 11.33 9.01778 11.33 9.57007V17.0401C11.33 17.5924 10.8822 18.0401 10.33 18.0401C9.77767 18.0401 9.32996 17.5924 9.32996 17.0401V9.57007C9.32996 9.01778 9.77767 8.57007 10.33 8.57007Z" fill="#333333"/>
    <path fill-rule="evenodd" clip-rule="evenodd" d="M14.59 8.57007C15.1423 8.57007 15.59 9.01778 15.59 9.57007V17.0401C15.59 17.5924 15.1423 18.0401 14.59 18.0401C14.0377 18.0401 13.59 17.5924 13.59 17.0401V9.57007C13.59 9.01778 14.0377 8.57007 14.59 8.57007Z" fill="#333333"/>
</svg>
