<svg width="48" height="48" viewBox="0 0 48 48" fill="none" xmlns="http://www.w3.org/2000/svg">
    <g clip-path="url(#clip0_5832_8015)">
        <path d="M24 0.5C36.9791 0.5 47.5 11.0209 47.5 24C47.5 36.9791 36.9791 47.5 24 47.5C11.0209 47.5 0.5 36.9791 0.5 24C0.5 11.0209 11.0209 0.5 24 0.5Z" fill="#FEC4B2" stroke="#FEC4B2"/>
        <path fill-rule="evenodd" clip-rule="evenodd" d="M24 13.5C24.9665 13.5 25.75 14.2835 25.75 15.25V25.75C25.75 26.7165 24.9665 27.5 24 27.5C23.0335 27.5 22.25 26.7165 22.25 25.75V15.25C22.25 14.2835 23.0335 13.5 24 13.5Z" fill="#CB3D0B"/>
        <path d="M24 34.4998C24.9665 34.4998 25.75 33.7163 25.75 32.7498C25.75 31.7833 24.9665 30.9998 24 30.9998C23.0335 30.9998 22.25 31.7833 22.25 32.7498C22.25 33.7163 23.0335 34.4998 24 34.4998Z" fill="#CB3D0B"/>
    </g>
    <defs>
        <clipPath id="clip0_5832_8015">
            <rect width="48" height="48" fill="white"/>
        </clipPath>
    </defs>
</svg>
